<?xml version="1.0" encoding="iso-8859-1"?>
<!-- Uploaded to: SVG Repo, www.svgrepo.com, Generator: SVG Repo Mixer Tools -->
<svg fill="#000000" height="800px" width="800px" version="1.1" id="Layer_1" xmlns="http://www.w3.org/2000/svg" xmlns:xlink="http://www.w3.org/1999/xlink" 
	 viewBox="0 0 512 512" xml:space="preserve">
<g>
	<g>
		<path d="M499.033,164.529L261.996,85.516c-3.891-1.297-8.101-1.297-11.992,0L12.967,164.529C5.224,167.11,0,174.357,0,182.518
			c0,8.163,5.224,15.409,12.967,17.99l105.552,35.184v104.851c0,8.162,5.224,15.408,12.967,17.99l118.518,39.506
			c1.946,0.649,3.972,0.973,5.996,0.973s4.05-0.324,5.996-0.973l118.518-39.506c7.743-2.581,12.967-9.828,12.967-17.99V235.692
			l80.593-26.864V294.4c0,10.473,8.49,18.963,18.963,18.963S512,304.872,512,294.4V182.518
			C512,174.357,506.776,167.11,499.033,164.529z M355.556,326.876L256,360.061l-99.556-33.185v-78.541l93.559,31.186
			c3.891,1.297,8.101,1.297,11.992,0l93.559-31.186V326.876z M368.895,203.91c-0.018,0.006-0.034,0.013-0.052,0.018L256,241.542
			l-112.844-37.615c-0.018-0.005-0.034-0.011-0.052-0.018l-64.176-21.391L256,123.495l177.07,59.023L368.895,203.91z"/>
	</g>
</g>
<g>
	<g>
		<path d="M493.037,357.926c-10.473,0-18.963,8.49-18.963,18.963v31.605c0,10.473,8.49,18.963,18.963,18.963
			S512,418.966,512,408.494v-31.605C512,366.416,503.51,357.926,493.037,357.926z"/>
	</g>
</g>
</svg>